<?xml version="1.0" encoding="UTF-8"?>
<svg id="Layer_2" data-name="Layer 2" xmlns="http://www.w3.org/2000/svg" xmlns:xlink="http://www.w3.org/1999/xlink" viewBox="0 0 250 287.5">
  <defs>
    <style>
      .cls-1 {
        fill: url(#linear-gradient-2);
      }

      .cls-2 {
        fill: url(#radial-gradient);
      }

      .cls-3 {
        fill: url(#linear-gradient);
      }
    </style>
    <radialGradient id="radial-gradient" cx="125" cy="139.07" fx="125" fy="139.07" r="119.09" gradientUnits="userSpaceOnUse">
      <stop offset="0" stop-color="#ea352a"/>
      <stop offset=".67" stop-color="#e01f2d"/>
      <stop offset="1" stop-color="#e01f2d"/>
    </radialGradient>
    <linearGradient id="linear-gradient" x1="125" y1="0" x2="125" y2="287.5" gradientUnits="userSpaceOnUse">
      <stop offset="0" stop-color="#5a3c3c"/>
      <stop offset=".42" stop-color="#503232"/>
      <stop offset="1" stop-color="#3c1e1e"/>
    </linearGradient>
    <linearGradient id="linear-gradient-2" x1="125.01" y1="12.5" x2="125.01" y2="275" gradientUnits="userSpaceOnUse">
      <stop offset="0" stop-color="#ffe1e1"/>
      <stop offset=".42" stop-color="#f5d7d7"/>
      <stop offset="1" stop-color="#e1c3c3"/>
    </linearGradient>
  </defs>
  <g id="Layer_4" data-name="Layer 4">
    <g>
      <path class="cls-2" d="M106.25,13.75v120.62H13.81c-.81-5.65-1.19-11.36-1.2-17.08l-.11-80.51c29.24-13.31,61.36-20.16,93.75-23.04ZM22.13,165.62c15.74,41.79,47.1,75.62,84.12,98.77v-98.77H22.13ZM143.75,165.62v98.77c37.02-23.15,68.39-56.99,84.12-98.77h-84.12ZM143.75,13.75v120.62h92.45c.8-5.65,1.18-11.36,1.19-17.08l.11-80.51c-29.24-13.31-61.36-20.16-93.75-23.04Z"/>
      <path class="cls-3" d="M143.75,1.19c-6.25-.52-12.5-.91-18.75-1.19-6.25.27-12.5.66-18.75,1.19C69.56,4.23,33.11,11.74,0,26.6l.12,88.17c.01,6.56.48,13.11,1.45,19.6.48,3.11,1.06,6.21,1.76,9.29,1.74,7.53,3.95,14.85,6.58,21.96,17.5,47.5,53.68,85.77,96.34,111.55,6.13,3.7,12.39,7.15,18.75,10.33,6.36-3.18,12.62-6.62,18.75-10.31,42.66-25.77,78.84-64.06,96.34-111.56,2.62-7.11,4.84-14.44,6.58-21.96.71-3.08,1.3-6.18,1.76-9.29.99-6.49,1.44-13.04,1.45-19.6l.12-88.17C216.89,11.74,180.44,4.23,143.75,1.19ZM12.61,117.3l-.11-80.51c29.24-13.31,61.36-20.16,93.75-23.04v120.62H13.81c-.81-5.65-1.19-11.36-1.2-17.08ZM22.13,165.62h84.12v98.77c-37.02-23.15-68.39-56.99-84.12-98.77ZM125,275c-4.23-2.14-8.39-4.41-12.5-6.81v-108.81H19.91c-1.71-5.13-3.17-10.35-4.4-15.7-.22-1.01-.45-2.02-.64-3.05h97.62V13.24c4.18-.31,8.34-.55,12.5-.74,4.16.19,8.32.43,12.5.74v127.39h97.64c-.2,1.01-.41,2.04-.65,3.05-1.23,5.35-2.69,10.57-4.4,15.7h-92.59v108.81c-4.11,2.4-8.27,4.67-12.5,6.81ZM143.75,264.4v-98.77h84.12c-15.74,41.79-47.1,75.62-84.12,98.77ZM143.75,134.38V13.75c32.39,2.87,64.51,9.73,93.75,23.04l-.11,80.51c-.01,5.71-.39,11.43-1.19,17.08h-92.45ZM30,46.97l-1.32,2.68c-.23.47-.89.47-1.12,0l-1.32-2.68-1.18-2.4c-.05-.09-.07-.2-.07-.31.08-1.68,1.45-3.02,3.12-3.02s3.04,1.34,3.12,3.02c0,.11-.02.21-.07.31l-1.18,2.4ZM87.43,25.82c.05-.09.07-.2.07-.31-.08-1.68-1.45-3.02-3.12-3.02s-3.04,1.34-3.12,3.02c0,.11.02.21.07.31l1.18,2.4,1.32,2.68c.23.47.89.47,1.12,0l1.32-2.68,1.18-2.4ZM59.31,32.07c.05-.09.07-.2.07-.31-.08-1.68-1.45-3.02-3.12-3.02s-3.04,1.34-3.12,3.02c0,.11.02.21.07.31l1.18,2.4,1.32,2.68c.23.47.89.47,1.12,0l1.32-2.68,1.18-2.4ZM81.32,121.68c-.05.09-.07.2-.07.31.08,1.68,1.45,3.02,3.12,3.02s3.04-1.34,3.12-3.02c0-.11-.02-.21-.07-.31l-1.18-2.4-1.32-2.68c-.23-.47-.89-.47-1.12,0l-1.32,2.68-1.18,2.4ZM25.07,121.68c-.05.09-.07.2-.07.31.08,1.68,1.45,3.02,3.12,3.02s3.04-1.34,3.12-3.02c0-.11-.02-.21-.07-.31l-1.18-2.4-1.32-2.68c-.23-.47-.89-.47-1.12,0l-1.32,2.68-1.18,2.4ZM53.19,121.68c-.05.09-.07.2-.07.31.08,1.68,1.45,3.02,3.12,3.02s3.04-1.34,3.12-3.02c0-.11-.02-.21-.07-.31l-1.18-2.4-1.32-2.68c-.23-.47-.89-.47-1.12,0l-1.32,2.68-1.18,2.4ZM218.82,44.57c-.05-.09-.07-.2-.07-.31.08-1.68,1.45-3.02,3.12-3.02,1.67,0,3.04,1.34,3.12,3.02,0,.11-.02.21-.07.31l-1.18,2.4-1.32,2.68c-.23.47-.89.47-1.12,0l-1.32-2.68-1.18-2.4ZM163.75,28.22l1.32,2.68c.23.47.89.47,1.12,0l1.32-2.68,1.18-2.4c.05-.09.07-.2.07-.31-.08-1.68-1.45-3.02-3.12-3.02s-3.04,1.34-3.12,3.02c0,.11.02.21.07.31l1.18,2.4ZM191.87,34.47l1.32,2.68c.23.47.89.47,1.12,0l1.32-2.68,1.18-2.4c.05-.09.07-.2.07-.31-.08-1.68-1.45-3.02-3.12-3.02s-3.04,1.34-3.12,3.02c0,.11.02.21.07.31l1.18,2.4ZM167.5,119.28l-1.32-2.68c-.23-.47-.89-.47-1.12,0l-1.32,2.68-1.18,2.4c-.05.09-.07.2-.07.31.08,1.68,1.45,3.02,3.12,3.02,1.67,0,3.04-1.34,3.12-3.02,0-.11-.02-.21-.07-.31l-1.18-2.4ZM223.75,119.28l-1.32-2.68c-.23-.47-.89-.47-1.12,0l-1.32,2.68-1.18,2.4c-.05.09-.07.2-.07.31.08,1.68,1.45,3.02,3.12,3.02s3.04-1.34,3.12-3.02c0-.11-.02-.21-.07-.31l-1.18-2.4ZM195.63,119.28l-1.32-2.68c-.23-.47-.89-.47-1.12,0l-1.32,2.68-1.18,2.4c-.05.09-.07.2-.07.31.08,1.68,1.45,3.02,3.12,3.02s3.04-1.34,3.12-3.02c0-.11-.02-.21-.07-.31l-1.18-2.4ZM81.32,235.43c-.05.09-.07.2-.07.31.08,1.68,1.45,3.02,3.12,3.02,1.67,0,3.04-1.34,3.12-3.02,0-.11-.02-.21-.07-.31l-1.18-2.4-1.32-2.68c-.23-.47-.89-.47-1.12,0l-1.32,2.68-1.18,2.4ZM167.5,233.03l-1.32-2.68c-.23-.47-.89-.47-1.12,0l-1.32,2.68-1.18,2.4c-.05.09-.07.2-.07.31.08,1.68,1.45,3.02,3.12,3.02,1.67,0,3.04-1.34,3.12-3.02,0-.11-.02-.21-.07-.31l-1.18-2.4ZM207.08,100.62c-5.51,0-10-4.48-10-10v-1.25c-.12-.31-1.3-1.25-3.33-1.25s-3.21.94-3.34,1.31v1.19c0,5.51-4.48,10-9.99,10h-6.67c-5.51,0-10-4.48-10-10v-15c0-5.51,4.49-10,10-10h40c5.51,0,10,4.48,10,10v15c0,5.51-4.49,10-10,10h-6.67ZM69.58,100.62c-5.51,0-10-4.48-10-10v-1.25c-.12-.31-1.3-1.25-3.33-1.25s-3.21.94-3.34,1.31v1.19c0,5.51-4.48,10-9.99,10h-6.67c-5.51,0-10-4.48-10-10v-15c0-5.51,4.49-10,10-10h40c5.51,0,10,4.48,10,10v15c0,5.51-4.49,10-10,10h-6.67ZM84.23,216.25c-2.21,0-4.28-.86-5.84-2.42l-3.39-3.39-3.39,3.39c-1.56,1.56-3.64,2.42-5.84,2.42s-4.28-.86-5.84-2.42c-3.22-3.22-3.22-8.47,0-11.69l3.39-3.39-3.39-3.39c-3.22-3.22-3.22-8.47,0-11.69,1.56-1.56,3.64-2.42,5.85-2.42s4.28.86,5.84,2.42l3.39,3.39,3.39-3.39c1.56-1.56,3.64-2.42,5.84-2.42s4.28.86,5.84,2.42c3.22,3.22,3.22,8.47,0,11.69l-3.39,3.39,3.39,3.39c3.22,3.22,3.22,8.47,0,11.69-1.56,1.56-3.64,2.42-5.85,2.42ZM184.23,216.25c-2.21,0-4.28-.86-5.84-2.42l-3.39-3.39-3.39,3.39c-1.56,1.56-3.64,2.42-5.84,2.42s-4.28-.86-5.84-2.42c-3.22-3.22-3.22-8.47,0-11.69l3.39-3.39-3.39-3.39c-3.22-3.22-3.22-8.47,0-11.69,1.56-1.56,3.64-2.42,5.85-2.42s4.28.86,5.84,2.42l3.39,3.39,3.39-3.39c1.56-1.56,3.64-2.42,5.84-2.42s4.28.86,5.84,2.42c3.22,3.22,3.22,8.47,0,11.69l-3.39,3.39,3.39,3.39c3.22,3.22,3.22,8.47,0,11.69-1.56,1.56-3.64,2.42-5.85,2.42Z"/>
      <path class="cls-1" d="M235.14,140.62c-.2,1.01-.41,2.04-.65,3.05-1.23,5.35-2.69,10.57-4.4,15.7h-92.59v108.81c-4.11,2.4-8.27,4.67-12.5,6.81-4.23-2.14-8.39-4.41-12.5-6.81v-108.81H19.91c-1.71-5.13-3.17-10.35-4.4-15.7-.22-1.01-.45-2.02-.64-3.05h97.62V13.24c4.18-.31,8.34-.55,12.5-.74,4.16.19,8.32.43,12.5.74v127.39h97.64ZM213.75,70.63h-40c-2.76,0-5,2.24-5,5v15c0,2.76,2.24,5,5,5h6.67c2.76,0,5-2.24,5-5v-1.25c0-3.45,3.73-6.25,8.33-6.25s8.33,2.8,8.33,6.25v1.25c0,2.76,2.24,5,5,5h6.67c2.76,0,5-2.24,5-5v-15c0-2.76-2.24-5-5-5ZM76.25,70.63h-40c-2.76,0-5,2.24-5,5v15c0,2.76,2.24,5,5,5h6.67c2.76,0,5-2.24,5-5v-1.25c0-3.45,3.73-6.25,8.33-6.25s8.33,2.8,8.33,6.25v1.25c0,2.76,2.24,5,5,5h6.67c2.76,0,5-2.24,5-5v-15c0-2.76-2.24-5-5-5ZM81.93,187.21l-4.62,4.62c-1.28,1.28-3.34,1.28-4.62,0l-4.62-4.62c-1.28-1.28-3.34-1.28-4.62,0h0c-1.28,1.28-1.28,3.34,0,4.62l4.62,4.62c1.28,1.28,1.28,3.34,0,4.62l-4.62,4.62c-1.28,1.28-1.28,3.34,0,4.62h0c1.28,1.28,3.34,1.28,4.62,0l4.62-4.62c1.28-1.28,3.34-1.28,4.62,0l4.62,4.62c1.28,1.28,3.34,1.28,4.62,0h0c1.28-1.28,1.28-3.34,0-4.62l-4.62-4.62c-1.28-1.28-1.28-3.34,0-4.62l4.62-4.62c1.28-1.28,1.28-3.34,0-4.62h0c-1.28-1.28-3.34-1.28-4.62,0ZM186.54,205.68l-4.62-4.62c-1.28-1.28-1.28-3.34,0-4.62l4.62-4.62c1.28-1.28,1.28-3.34,0-4.62h0c-1.28-1.28-3.34-1.28-4.62,0l-4.62,4.62c-1.28,1.28-3.34,1.28-4.62,0l-4.62-4.62c-1.28-1.28-3.34-1.28-4.62,0h0c-1.28,1.28-1.28,3.34,0,4.62l4.62,4.62c1.28,1.28,1.28,3.34,0,4.62l-4.62,4.62c-1.28,1.28-1.28,3.34,0,4.62h0c1.28,1.28,3.34,1.28,4.62,0l4.62-4.62c1.28-1.28,3.34-1.28,4.62,0l4.62,4.62c1.28,1.28,3.34,1.28,4.62,0h0c1.28-1.28,1.28-3.34,0-4.62Z"/>
    </g>
  </g>
</svg>